<?xml version="1.0" standalone="no"?>
<!DOCTYPE svg PUBLIC "-//W3C//DTD SVG 20010904//EN"
 "http://www.w3.org/TR/2001/REC-SVG-20010904/DTD/svg10.dtd">
<svg version="1.0" xmlns="http://www.w3.org/2000/svg"
 width="512.000000pt" height="512.000000pt" viewBox="0 0 512.000000 512.000000"
 preserveAspectRatio="xMidYMid meet">

<g transform="translate(0.000000,512.000000) scale(0.100000,-0.100000)"
fill="#000000" stroke="none">
<path d="M1215 4469 c-316 -41 -614 -193 -834 -425 -478 -505 -507 -1288 -68
-1829 36 -44 526 -540 1089 -1101 976 -975 1025 -1022 1077 -1039 69 -22 147
-15 204 18 23 14 137 121 254 239 201 203 212 216 228 272 40 137 -33 272
-170 311 -112 33 -178 4 -328 -143 l-108 -106 -925 924 c-1000 1000 -1007
1007 -1073 1178 -104 271 -69 585 92 822 17 25 60 76 96 114 114 119 236 193
398 243 79 24 104 26 238 26 166 0 243 -15 368 -71 119 -54 179 -103 422 -343
132 -130 256 -245 275 -255 49 -26 171 -26 220 0 19 10 141 123 270 250 251
248 284 275 412 336 264 126 567 114 826 -32 101 -57 254 -207 312 -305 172
-294 172 -632 0 -926 -35 -59 -123 -153 -505 -537 -317 -319 -470 -479 -485
-510 -16 -30 -23 -63 -23 -105 -2 -186 190 -306 358 -225 27 13 201 181 511
492 503 506 542 551 634 741 329 683 50 1508 -625 1845 -209 105 -383 145
-625 145 -185 0 -299 -19 -457 -74 -231 -82 -365 -172 -610 -413 l-102 -100
-133 130 c-147 144 -219 202 -333 269 -261 155 -582 222 -880 184z" fill="#1098f7"/>
</g>
</svg>
